# xmcd
#
# Track frame offsets:
# 150
# 16146
# 32760
# 45061
# 53350
# 73451
# 84289
# 96765
# 111366
# 132367
# 141593
# 159894
# 176320
# 185921
# 197772
# 208948
#
# Disc length: 2963 seconds
#
#
# Revision: 0
# Processed by: cddbd v1.5.2PL0 Copyright (c) Steve Scherf et al.
# Submitted via: FreeRIP 2.96 
#
DISCID=da0b9110
DTITLE=Duck Baker - My Heart Belongs to Jenny
DYEAR=2000
DGENRE=Country
TTITLE0=My Heart Belongs to Jenny
TTITLE1=Pretty Girl Milking a Cow
TTITLE2=Banish Misfortune
TTITLE3=Polly put the Kettle on
TTITLE4=John o'Dwyer of the Glen - the Plains of Boyle
TTITLE5=The Joy of my Life - The Banks of Lough Gowna
TTITLE6=Little Beggar Man - Sandy River Belle
TTITLE7=Little Brown Jug - Market Girls
TTITLE8=Oliver Goldsmith's Lament
TTITLE9=Charles o'Connor
TTITLE10=Huggerth the Puss
TTITLE11=The Blackbird and the Thrush
TTITLE12=Swedish Jig
TTITLE13=Temperance Reel - The Green Fields of America
TTITLE14=The Bonnie Bunch of Roses
TTITLE15=Catholic Bill's Jig - Planxty Sweeny
EXTD=
EXTT0=
EXTT1=
EXTT2=
EXTT3=
EXTT4=
EXTT5=
EXTT6=
EXTT7=
EXTT8=
EXTT9=
EXTT10=
EXTT11=
EXTT12=
EXTT13=
EXTT14=
EXTT15=
PLAYORDER=
